<svg xmlns="http://www.w3.org/2000/svg" width="52.752" height="32.973" viewBox="0 0 52.752 32.973">
  <path id="behance" d="M24.205,99.408a8.108,8.108,0,0,1,1.494,4.91,7.1,7.1,0,0,1-1.507,4.738,7.912,7.912,0,0,1-2.489,1.827,7.328,7.328,0,0,1,3.769,2.839,8.437,8.437,0,0,1,1.269,4.712,9.291,9.291,0,0,1-1.454,5.127,8.917,8.917,0,0,1-2.308,2.529,9.059,9.059,0,0,1-3.683,1.616,22.969,22.969,0,0,1-4.606.432H0V95.979H15.754Q21.719,96.068,24.205,99.408ZM6.5,101.565v7.1h7.927a6.65,6.65,0,0,0,3.449-.8A3.028,3.028,0,0,0,19.2,105.04a2.885,2.885,0,0,0-1.751-2.974,12.51,12.51,0,0,0-3.855-.5Zm0,12.418v8.576h7.917a7.771,7.771,0,0,0,3.3-.567c1.431-.706,2.143-2.038,2.143-4.016a3.448,3.448,0,0,0-2.074-3.452,8.376,8.376,0,0,0-3.264-.541Zm39.95-9.14a9.707,9.707,0,0,1,4.161,3.518,11.473,11.473,0,0,1,1.926,4.916A30.261,30.261,0,0,1,52.746,118H35.182c.106,2.384.936,4.059,2.526,5.015a6.461,6.461,0,0,0,3.479.9,5.388,5.388,0,0,0,3.5-1.088,5.19,5.19,0,0,0,1.3-1.635h6.436a7.8,7.8,0,0,1-2.334,4.3q-3.24,3.462-9.071,3.465a13.231,13.231,0,0,1-8.49-2.925q-3.69-2.923-3.683-9.519,0-6.182,3.32-9.483a11.737,11.737,0,0,1,8.619-3.3A13.775,13.775,0,0,1,46.449,104.842Zm-9.427,5.371a6.446,6.446,0,0,0-1.682,3.68H46.2a5.2,5.2,0,0,0-1.678-3.762,5.6,5.6,0,0,0-3.742-1.279A5.069,5.069,0,0,0,37.022,110.213Zm-3.31-8.731H47.682v-4H33.711v4Z" transform="translate(0 -95.979)" fill="#1976d2"/>
</svg>
