<svg id="facebook_1_" data-name="facebook(1)" xmlns="http://www.w3.org/2000/svg" width="51.605" height="51.605" viewBox="0 0 51.605 51.605">
  <path id="Tracé_306" data-name="Tracé 306" d="M45.155,0H6.451A6.457,6.457,0,0,0,0,6.451v38.7a6.457,6.457,0,0,0,6.451,6.451h38.7a6.457,6.457,0,0,0,6.451-6.451V6.451A6.457,6.457,0,0,0,45.155,0Z" fill="#1976d2"/>
  <path id="Tracé_307" data-name="Tracé 307" d="M216.19,112.127h-8.063v-6.451c0-1.78,1.445-1.613,3.225-1.613h3.225V96h-6.451a9.675,9.675,0,0,0-9.676,9.676v6.451H192v8.063h6.451v17.739h9.676V120.19h4.838Z" transform="translate(-172.648 -86.324)" fill="#fafafa"/>
</svg>
