<svg xmlns="http://www.w3.org/2000/svg" width="36.912" height="37.12" viewBox="0 0 36.912 37.12">
  <g id="linkedin" transform="translate(0)">
    <rect id="Rectangle_40" data-name="Rectangle 40" width="8.254" height="25.377" transform="translate(0 11.743)" fill="#fff"/>
    <path id="Tracé_283" data-name="Tracé 283" d="M179.2,160.3c-.088-.028-.171-.058-.263-.083-.111-.025-.221-.046-.335-.065a7.4,7.4,0,0,0-1.481-.15h0c-4.812,0-7.865,3.5-8.87,4.852V160H160v25.377h8.254V171.535s6.238-8.688,8.87-2.307v16.149h8.252V168.252A8.23,8.23,0,0,0,179.2,160.3Z" transform="translate(-148.465 -148.257)" fill="#fff"/>
    <ellipse id="Ellipse_8" data-name="Ellipse 8" cx="4" cy="4.5" rx="4" ry="4.5" transform="translate(0.334)" fill="#fff"/>
  </g>
</svg>
