<svg xmlns="http://www.w3.org/2000/svg" width="41.364" height="38.781" viewBox="0 0 41.364 38.781">
  <path id="snapchat" d="M40.553,44.947c-5.53-.91-8.022-6.575-8.123-6.815a.391.391,0,0,0-.023-.047,1.709,1.709,0,0,1-.194-1.406c.3-.708,1.461-1.076,2.226-1.319.222-.07.432-.137.6-.2a4.681,4.681,0,0,0,1.649-.985,1.566,1.566,0,0,0,.5-1.127,1.774,1.774,0,0,0-1.329-1.538,2.4,2.4,0,0,0-.9-.171,2,2,0,0,0-.838.171A4.7,4.7,0,0,1,32.4,32a1.583,1.583,0,0,1-.571-.124c.016-.259.031-.525.049-.8l.008-.119c.178-2.8.4-6.282-.527-8.351a11.233,11.233,0,0,0-2.531-3.622,10.585,10.585,0,0,0-3.027-2,11.962,11.962,0,0,0-4.723-1h-.1L20.266,16a12.008,12.008,0,0,0-4.729,1,10.526,10.526,0,0,0-3.017,1.993A11.27,11.27,0,0,0,10,22.6c-.926,2.066-.706,5.548-.53,8.346v.005c.018.3.039.613.057.918A1.657,1.657,0,0,1,8.849,32,4.486,4.486,0,0,1,7.005,31.5a1.656,1.656,0,0,0-.7-.145,2.477,2.477,0,0,0-1.238.346,1.713,1.713,0,0,0-.876,1.119,1.544,1.544,0,0,0,.589,1.45,5.084,5.084,0,0,0,1.541.882c.176.07.385.134.6.2.765.243,1.926.61,2.229,1.319a1.722,1.722,0,0,1-.2,1.406.366.366,0,0,0-.021.047,13.69,13.69,0,0,1-2.084,3.221A11.692,11.692,0,0,1,4.34,43.571,9.248,9.248,0,0,1,.811,44.944.966.966,0,0,0,0,45.953a1.225,1.225,0,0,0,.1.421v0a2.584,2.584,0,0,0,1.4,1.2A16,16,0,0,0,5.55,48.626a4.908,4.908,0,0,1,.248.889c.067.31.137.631.238.97a1.06,1.06,0,0,0,1.109.807A5.4,5.4,0,0,0,8.1,51.16a10.82,10.82,0,0,1,2.169-.246,9.427,9.427,0,0,1,1.551.132,7.368,7.368,0,0,1,2.9,1.5,9.383,9.383,0,0,0,5.714,2.226q.1,0,.209-.008c.083.005.189.008.3.008a9.4,9.4,0,0,0,5.714-2.223l0,0a7.394,7.394,0,0,1,2.9-1.494,9.426,9.426,0,0,1,1.551-.132,10.87,10.87,0,0,1,2.169.23,5.242,5.242,0,0,0,.951.116h.047a1.047,1.047,0,0,0,1.063-.794c.1-.334.168-.644.238-.962a5.078,5.078,0,0,1,.246-.884,16.114,16.114,0,0,0,4.046-1.052,2.594,2.594,0,0,0,1.4-1.194,1.229,1.229,0,0,0,.1-.427A.962.962,0,0,0,40.553,44.947Z" transform="translate(0 -15.988)" fill="#ffd93b"/>
</svg>
