<svg id="soundcloud" xmlns="http://www.w3.org/2000/svg" width="58.654" height="32.993" viewBox="0 0 58.654 32.993">
  <path id="Tracé_308" data-name="Tracé 308" d="M276.162,126.664a9.126,9.126,0,0,0-1.91.2A16.526,16.526,0,0,0,257.833,112,1.834,1.834,0,0,0,256,113.833V143.16a1.834,1.834,0,0,0,1.833,1.833h18.329a9.165,9.165,0,1,0,0-18.33Z" transform="translate(-226.673 -112)" fill="#ff9800"/>
  <path id="Tracé_309" data-name="Tracé 309" d="M193.833,144A1.834,1.834,0,0,0,192,145.833v25.661a1.833,1.833,0,1,0,3.666,0V145.833A1.834,1.834,0,0,0,193.833,144Z" transform="translate(-170.005 -140.334)" fill="#ff9800"/>
  <path id="Tracé_310" data-name="Tracé 310" d="M129.833,208A1.834,1.834,0,0,0,128,209.833v18.33a1.833,1.833,0,1,0,3.666,0v-18.33A1.834,1.834,0,0,0,129.833,208Z" transform="translate(-113.336 -197.002)" fill="#ff9800"/>
  <path id="Tracé_311" data-name="Tracé 311" d="M65.833,208A1.834,1.834,0,0,0,64,209.833v18.33a1.833,1.833,0,1,0,3.666,0v-18.33A1.834,1.834,0,0,0,65.833,208Z" transform="translate(-56.668 -197.002)" fill="#ff9800"/>
  <path id="Tracé_312" data-name="Tracé 312" d="M1.833,256A1.834,1.834,0,0,0,0,257.833v11a1.833,1.833,0,0,0,3.666,0v-11A1.834,1.834,0,0,0,1.833,256Z" transform="translate(0 -239.503)" fill="#ff9800"/>
</svg>
