<svg xmlns="http://www.w3.org/2000/svg" width="46.319" height="46.319" viewBox="0 0 46.319 46.319">
  <path id="logo" d="M23.16,0a23.16,23.16,0,1,0,23.16,23.16A23.16,23.16,0,0,0,23.16,0ZM33.239,33.611a1.583,1.583,0,0,1-2.166.568A23.313,23.313,0,0,0,18.8,31.456a30.44,30.44,0,0,0-6.365.84,1.584,1.584,0,0,1-.84-3.054,32.976,32.976,0,0,1,7.02-.949,30.918,30.918,0,0,1,6.763.49,22.825,22.825,0,0,1,7.292,2.662A1.584,1.584,0,0,1,33.239,33.611ZM36.183,27.5a1.875,1.875,0,0,1-2.566.673c-4.93-2.881-10.625-3.344-14.535-3.225a36.065,36.065,0,0,0-7.54,1,1.876,1.876,0,0,1-.995-3.618A39.052,39.052,0,0,1,18.862,21.2a36.63,36.63,0,0,1,8.011.58A27.04,27.04,0,0,1,35.51,24.93,1.876,1.876,0,0,1,36.183,27.5Zm1.81-5.56a2.29,2.29,0,0,1-1.159-.315c-11.72-6.849-26.923-2.777-27.075-2.735a2.3,2.3,0,0,1-1.222-4.437,47.9,47.9,0,0,1,10.2-1.38,44.938,44.938,0,0,1,9.826.711,33.164,33.164,0,0,1,10.594,3.867,2.3,2.3,0,0,1-1.163,4.288Z" fill="#00d95f"/>
</svg>
