<svg xmlns="http://www.w3.org/2000/svg" width="62.554" height="50.825" viewBox="0 0 62.554 50.825">
  <path id="twitter_1_" data-name="twitter(1)" d="M62.554,54.017a26.737,26.737,0,0,1-7.389,2.025,12.752,12.752,0,0,0,5.642-7.088,25.628,25.628,0,0,1-8.132,3.1,12.823,12.823,0,0,0-22.183,8.769,13.2,13.2,0,0,0,.3,2.924A36.3,36.3,0,0,1,4.355,50.338,12.828,12.828,0,0,0,8.3,67.478,12.665,12.665,0,0,1,2.5,65.9v.141a12.883,12.883,0,0,0,10.275,12.6,12.8,12.8,0,0,1-3.362.422,11.339,11.339,0,0,1-2.428-.219A12.946,12.946,0,0,0,18.97,87.777a25.768,25.768,0,0,1-15.9,5.47A24.018,24.018,0,0,1,0,93.07a36.1,36.1,0,0,0,19.673,5.755c23.6,0,36.5-19.548,36.5-36.492,0-.567-.02-1.114-.047-1.658A25.584,25.584,0,0,0,62.554,54.017Z" transform="translate(0 -48)" fill="#03a9f4"/>
</svg>
