<svg xmlns="http://www.w3.org/2000/svg" width="39.91" height="32.427" viewBox="0 0 39.91 32.427">
  <path id="twitter" d="M39.91,51.839A17.059,17.059,0,0,1,35.2,53.131a8.136,8.136,0,0,0,3.6-4.522,16.352,16.352,0,0,1-5.188,1.981,8.181,8.181,0,0,0-14.153,5.595,8.425,8.425,0,0,0,.19,1.866A23.159,23.159,0,0,1,2.779,49.492,8.184,8.184,0,0,0,5.293,60.427a8.08,8.08,0,0,1-3.7-1.008v.09a8.22,8.22,0,0,0,6.555,8.039,8.166,8.166,0,0,1-2.145.269,7.235,7.235,0,0,1-1.549-.14,8.26,8.26,0,0,0,7.645,5.7,16.44,16.44,0,0,1-10.145,3.49A15.326,15.326,0,0,1,0,76.755a23.035,23.035,0,0,0,12.552,3.672c15.056,0,23.288-12.472,23.288-23.282,0-.362-.012-.711-.03-1.058A16.323,16.323,0,0,0,39.91,51.839Z" transform="translate(0 -48)" fill="#fff"/>
</svg>
