<svg id="youtube_1_" data-name="youtube(1)" xmlns="http://www.w3.org/2000/svg" width="55.455" height="38.125" viewBox="0 0 55.455 38.125">
  <path id="Tracé_304" data-name="Tracé 304" d="M53.1,83.674c-1.5-2.676-3.137-3.168-6.46-3.355-3.32-.225-11.67-.319-18.9-.319s-15.6.094-18.917.315c-3.317.191-4.953.679-6.471,3.358C.8,86.346,0,90.949,0,99.052v.028c0,8.069.8,12.706,2.346,15.351,1.518,2.676,3.151,3.161,6.467,3.386,3.32.194,11.673.308,18.92.308s15.583-.114,18.907-.305c3.324-.225,4.956-.711,6.46-3.386,1.563-2.645,2.353-7.282,2.353-15.351v-.028C55.455,90.949,54.665,86.346,53.1,83.674Z" transform="translate(0 -80)" fill="#f44336"/>
  <path id="Tracé_305" data-name="Tracé 305" d="M192,180.8V160l17.33,10.4Z" transform="translate(-171.204 -151.335)" fill="#fafafa"/>
</svg>
